<svg width="86" height="26" viewBox="0 0 86 26" fill="none" xmlns="http://www.w3.org/2000/svg">
<g clip-path="url(#clip0_5015_9303)">
<path d="M10.1147 20.1138H0V5.74707H2.88816V17.2418H10.1116C10.9102 17.2418 11.5557 17.8837 11.5557 18.6779C11.5557 19.4719 10.9102 20.1138 10.1116 20.1138H10.1147Z" fill="#EFB90B"/>
<path d="M9.94335 25.8614H2.88816C1.29111 25.8614 0 24.5744 0 22.9892H9.98618C12.3175 22.9892 14.3245 21.2125 14.4409 18.8971C14.5632 16.4235 12.5745 14.3698 10.1116 14.3698H5.77632V11.4977H9.98618C12.3175 11.4977 14.3245 9.72086 14.4409 7.40549C14.5632 4.93193 12.5745 2.87823 10.1116 2.87823H0C0 1.28699 1.29416 0 2.88816 0H9.94335C13.9452 0 17.3657 3.2555 17.3352 7.23512C17.3198 9.56264 16.1848 11.6285 14.4409 12.9307C16.1848 14.2329 17.3167 16.2987 17.3352 18.6263C17.3626 22.6059 13.9452 25.8614 9.94335 25.8614Z" fill="#090909"/>
<path d="M10.1166 8.61921H5.78125V5.74707H10.1166C10.9151 5.74707 11.5606 6.38904 11.5606 7.18315C11.5606 7.97725 10.9151 8.61921 10.1166 8.61921Z" fill="#090909"/>
<path d="M33.6605 7.61966C34.1599 7.80201 34.5393 8.1143 34.8008 8.55865C35.0599 9.003 35.1907 9.5228 35.1907 10.116C35.1907 11.0445 34.8745 11.7655 34.2464 12.2811C33.6161 12.7967 32.7816 13.0566 31.7425 13.0566H27.1836V3.0127H31.7425C32.6657 3.0127 33.4139 3.23697 33.985 3.68761C34.5562 4.13614 34.8428 4.79218 34.8428 5.65363C34.8428 6.51508 34.4488 7.20884 33.6605 7.61966ZM32.3622 6.08331C32.3622 5.79615 32.2841 5.60122 32.1303 5.49434C31.9764 5.38953 31.7361 5.33714 31.4094 5.33714H29.6348V6.84415H31.5106C32.0775 6.84415 32.3622 6.59054 32.3622 6.08331ZM31.6855 10.7322C32.0692 10.7322 32.3369 10.663 32.4865 10.5247C32.6361 10.3863 32.7099 10.1788 32.7099 9.90008C32.7099 9.60454 32.6382 9.39075 32.4927 9.26081C32.3495 9.13085 32.0797 9.06797 31.6855 9.06797H29.637V10.7322H31.6855Z" fill="#090909"/>
<path d="M39.1583 10.7322H43.2555V13.0566H36.707V3.0127H39.1604V10.7301L39.1583 10.7322Z" fill="#090909"/>
<path d="M51.7939 13.0565L51.0731 10.9773H47.294L46.5732 13.0565H43.9766L47.6418 3.01465H50.7295L54.3948 13.0565H51.798H51.7939ZM48.0991 8.65073H50.2637L49.1825 5.52352L48.1012 8.65073H48.0991Z" fill="#090909"/>
<path d="M60.0578 13.2432C58.5488 13.2432 57.2968 12.7464 56.3062 11.7508C55.3156 10.7553 54.8203 9.51863 54.8203 8.03468C54.8203 6.55073 55.3156 5.31409 56.3062 4.3185C57.2968 3.32291 58.5467 2.82617 60.0578 2.82617C61.2781 2.82617 62.3342 3.16991 63.2235 3.85949C64.113 4.54907 64.6969 5.44614 64.9771 6.55702H62.3509C62.1486 6.11685 61.8493 5.77312 61.4489 5.5237C61.0485 5.27427 60.5847 5.15061 60.0578 5.15061C59.2316 5.15061 58.5656 5.41889 58.0597 5.95336C57.5539 6.48994 57.3031 7.18161 57.3031 8.03257C57.3031 8.88355 57.556 9.57731 58.0597 10.1118C58.5656 10.6484 59.2296 10.9145 60.0578 10.9145C60.5869 10.9145 61.0505 10.7909 61.4489 10.5415C61.8472 10.292 62.1486 9.94831 62.3509 9.50814H64.9771C64.6989 10.6169 64.113 11.5161 63.2235 12.2057C62.3342 12.8952 61.2781 13.239 60.0578 13.239V13.2432Z" fill="#090909"/>
<path d="M75.3802 13.0566H72.322L68.9454 8.50835V13.0566H66.4922V3.0127H68.9454V7.28849L72.1048 3.0127H75.1209L71.4852 7.86069L75.3802 13.0545V13.0566Z" fill="#090909"/>
<path d="M85.5503 3.01283L82.0599 9.84152V13.0547H79.6067V9.86878L76.1016 3.01074H78.8563L80.8334 7.09999L82.8103 3.01074H85.5503V3.01283Z" fill="#090909"/>
<path d="M31.4125 17.3385H27.6925V19.9355H31.187V20.4239H27.6925V23.6747H27.1719V16.8418H31.4125V17.3406V17.3385Z" fill="#090909"/>
<path d="M32.7548 16.002C32.8792 16.002 32.9803 16.0418 33.0583 16.1192C33.1363 16.1968 33.1763 16.2912 33.1763 16.4023C33.1763 16.5196 33.1363 16.6182 33.0583 16.6956C32.9803 16.7732 32.8792 16.813 32.7548 16.813C32.6431 16.813 32.5461 16.7732 32.4661 16.6956C32.3838 16.6182 32.3438 16.5196 32.3438 16.4023C32.3438 16.2912 32.3838 16.1968 32.4661 16.1192C32.5482 16.0418 32.6431 16.002 32.7548 16.002ZM32.4998 23.6753V18.3075H33.0204V23.6753H32.4998Z" fill="#090909"/>
<path d="M37.2214 18.1982C37.8305 18.1982 38.3068 18.3763 38.6504 18.7348C38.994 19.0931 39.1668 19.6004 39.1668 20.2586V23.6749H38.6461V20.3277C38.6461 19.7933 38.5113 19.3887 38.2436 19.1121C37.9759 18.8354 37.5986 18.697 37.1138 18.697C36.4984 18.697 36.0179 18.9045 35.6702 19.3175C35.3223 19.7304 35.1495 20.2795 35.1495 20.9627V23.677H34.6289V18.3093H35.1495V19.5689C35.5352 18.6572 36.2266 18.2023 37.2214 18.2023V18.1982Z" fill="#090909"/>
<path d="M45.289 18.3052H45.8096V23.6731H45.289V22.3946C45.074 22.8179 44.7662 23.1532 44.3722 23.4048C43.9759 23.6563 43.529 23.7799 43.0317 23.7799C42.2792 23.7799 41.6637 23.5158 41.1853 22.9898C40.7069 22.4637 40.4688 21.795 40.4688 20.9882C40.4688 20.1812 40.7069 19.5147 41.1853 18.9865C41.6637 18.4604 42.275 18.1963 43.0212 18.1963C43.5249 18.1963 43.9738 18.322 44.37 18.5715C44.7662 18.823 45.0718 19.1625 45.2868 19.5922V18.3031L45.289 18.3052ZM43.1012 23.2832C43.7293 23.2832 44.252 23.0673 44.6714 22.6335C45.0909 22.2017 45.2995 21.6526 45.2995 20.9882C45.2995 20.3238 45.0909 19.7766 44.6714 19.3428C44.252 18.911 43.7293 18.693 43.1012 18.693C42.4731 18.693 41.9715 18.9089 41.5795 19.3428C41.1875 19.7745 40.9914 20.3238 40.9914 20.9882C40.9914 21.6526 41.1875 22.1996 41.5795 22.6335C41.9715 23.0673 42.4795 23.2832 43.1012 23.2832Z" fill="#090909"/>
<path d="M50.0144 18.1982C50.6235 18.1982 51.0998 18.3763 51.4434 18.7348C51.787 19.0931 51.9597 19.6004 51.9597 20.2586V23.6749H51.4391V20.3277C51.4391 19.7933 51.3043 19.3887 51.0366 19.1121C50.7689 18.8354 50.3916 18.697 49.9068 18.697C49.2914 18.697 48.8108 18.9045 48.4631 19.3175C48.1153 19.7304 47.9425 20.2795 47.9425 20.9627V23.677H47.4219V18.3093H47.9425V19.5689C48.3283 18.6572 49.0196 18.2023 50.0144 18.2023V18.1982Z" fill="#090909"/>
<path d="M56.029 23.7819C55.2492 23.7819 54.5937 23.5178 54.0604 22.9854C53.5271 22.4552 53.2617 21.7886 53.2617 20.99C53.2617 20.1915 53.5271 19.5249 54.0604 18.9946C54.5937 18.4643 55.2534 18.1982 56.0375 18.1982C56.6529 18.1982 57.1967 18.3701 57.6667 18.7117C58.1366 19.0534 58.4549 19.5145 58.6193 20.093H58.0693C57.9259 19.6695 57.6709 19.3299 57.3041 19.0722C56.9374 18.8145 56.5159 18.6866 56.0375 18.6866C55.3967 18.6866 54.8593 18.9045 54.4272 19.3405C53.9951 19.7765 53.7801 20.3256 53.7801 20.99C53.7801 21.6544 53.9951 22.1952 54.4272 22.6353C54.8593 23.0755 55.3925 23.2935 56.0268 23.2935C56.5054 23.2935 56.929 23.1657 57.2979 22.9079C57.6667 22.65 57.9238 22.3105 58.0693 21.8871H58.6193C58.4549 22.4656 58.1366 22.9267 57.6625 23.2684C57.1883 23.6101 56.6424 23.7819 56.029 23.7819Z" fill="#090909"/>
<path d="M62.3509 18.1982C63.1749 18.1982 63.8304 18.4707 64.3131 19.0177C64.7979 19.5648 65.0339 20.2774 65.0191 21.1556H60.1505C60.1758 21.8138 60.397 22.3314 60.8123 22.7129C61.2275 23.0944 61.7523 23.2831 62.3867 23.2831C62.8251 23.2831 63.215 23.1929 63.5543 23.0105C63.8936 22.8282 64.1529 22.5641 64.33 22.2203H64.8695C64.6545 22.7276 64.3236 23.1154 63.879 23.3816C63.4342 23.6478 62.9326 23.7819 62.3762 23.7819C61.571 23.7819 60.9092 23.524 60.3929 23.0105C59.8765 22.497 59.6172 21.8305 59.6172 21.0089C59.6172 20.1872 59.8744 19.5145 60.3886 18.9884C60.9028 18.4623 61.5542 18.1982 62.3466 18.1982H62.3509ZM62.3509 18.6866C61.7628 18.6866 61.2675 18.871 60.8692 19.2378C60.4709 19.6046 60.2347 20.0825 60.1631 20.6673H64.4712C64.4059 20.0825 64.1825 19.6046 63.7988 19.2378C63.4152 18.871 62.9326 18.6866 62.3509 18.6866Z" fill="#090909"/>
</g>
<defs>
<clipPath id="clip0_5015_9303">
<rect width="85.6818" height="26" fill="white"/>
</clipPath>
</defs>
</svg>
